<svg height="64" viewBox="0 0 64 64" width="64" xmlns="http://www.w3.org/2000/svg"><path d="m18.7030057 51.2845595c.5556141-.1709582 1.158118-.0917131 1.6506294.2171013 3.6274523 2.274484 7.8209141 3.4983392 12.1999242 3.4983392 12.7025492 0 23-10.2974508 23-23s-10.2974508-23-23-23c-12.7025493 0-23.00000003 10.2974508-23.00000003 23 0 4.5076583 1.29707013 8.8178887 3.69888603 12.5140855.3157338.4858883.4052118 1.0848302.2452713 1.6417812-.3055263 1.0639157-.725917 2.562661-1.2317568 4.3868076-.0218021.0786295-.0218021.0786295-.0436012.1572763-.2511155.9060568-.5128952 1.8546738-.7778663 2.8179973zm-9.56127473 7.1269985c-1.50667145.4635912-2.93245063-.9169063-2.51771092-2.4377504.0271319-.099492.0271319-.099492.14897703-.5454878.11849039-.4334922.25070018-.9164853.39331318-1.4366167.40750181-1.4862215.81678282-2.9725017 1.20135544-4.3600887.02187268-.0789124.02187268-.0789124.04375007-.1578133.3854749-1.39009.72181383-2.5930164.99685887-3.5633582-2.50635195-4.1612811-3.85471537-8.9381233-3.85471537-13.9104429 0-14.9116882 12.08831173-27 27.00000003-27 14.9116882 0 27 12.0883118 27 27s-12.0883118 27-27 27c-4.8193799 0-9.4562797-1.2665138-13.5290605-3.6292936zm27.83094733-21.4924378c.2658608-.2658607.5545866-.5866673.856938-.9494892.3776404-.4531685.7547127-.9450022 1.1103964-1.4374875.2128232-.2946785.3687897-.520561.4494453-.6415444.0730562-.1095845.1567583-.2116846.2498872-.3048135.1719172-.1719172.3981845-.3416177.686453-.4857519.8963884-.4481942 2.0035772-.4481942 3.1221878.1111111.3712511.1856256 4.6761724 2.9846036 6.5768591 4.0405406.7395506.4108615 1.1405862 1.2426085 1.0015019 2.077113-.4516465 2.7098758-1.2361825 4.7630224-2.9960746 6.5229145-2.4367235 2.4367233-6.1655094 3.3923417-11.2733943 2.626159-9.454688-1.4182033-17.5869154-9.7038687-21.07001-18.7599137-1.5150516-3.9391335-.772978-7.8144066 1.3259165-11.3125644.7779241-1.2965402 1.5628589-2.255905 2.126561-2.8196073.2792011-.2792011.6347991-.4695114 1.0219814-.5469479.1726117-.0345223.4439332-.0824025.7760563-.1298487.3488185-.0498312.6935564-.0881354 1.0263478-.1103215 1.3609872-.0907325 2.221842.004918 3.004042.7871183.988434.9884345 4.0857858 6.9448802 4.0857862 8.4142128.0000004 1.5436828-.6771104 2.8533947-2.3601647 4.6636876.4768716 1.2823926 2.1451216 3.2369198 4.5678755 5.2289619 1.257181 1.0336823 2.6265077 2.0067783 3.8233072 2.7342446.5341164.324659 1.0055742.5824772 1.3657612.749911.1580768-.1102903.3312289-.2665734.5223398-.4576844zm-16.5299219-16.4557435c-1.5225046 2.5375079-2.0314599 5.1953852-1.0225059 7.8186651 3.014519 7.8377485 10.1099768 15.0670827 17.9299894 16.2400846 3.9366417.5904963 6.3913693-.0386047 7.8516055-1.4988408.780546-.7805459 1.267853-1.7474997 1.6003403-3.0192217-1.7182558-1.0297697-3.861597-2.4031693-4.740906-2.9628293-.370221.506319-.7599743 1.0105691-1.1587778 1.4891335-.3747322.4496788-.7422567.8580394-1.1013962 1.217179-1.1152239 1.1152241-2.0710671 1.7524529-3.2475464 1.7524529-1.4704623 0-4.7988335-2.0231276-7.8327108-4.517649-3.790243-3.1164221-6.1672891-6.1568299-6.1672892-8.9823509-.0000001-.530433.2107136-1.0391408.5857863-1.4142136 1.5333942-1.5333944 1.9142138-2.1680935 1.9142137-2.585786-.0856091-.1086157-.1823187-.3529239-.3103596-.6470719-.2535833-.5825561-.6135929-1.3235282-1.0265742-2.1177231-.381975-.7345672-.7884959-1.4742372-1.1319978-2.062007-.0835049-.1428863-.1615766-.2738374-.2326257-.39033-.0390587.0018122-.0798599.0041182-.1221949.0069405-.2016268.0134418-.4238085.0372784-.6540691.0688111-.4140763.5057986-.7861421 1.0266908-1.1329816 1.6047566z" fill="#80d25b"/></svg>